<?xml version="1.0" encoding="UTF-8" standalone="no"?>
<!DOCTYPE svg PUBLIC "-//W3C//DTD SVG 1.1//EN"
 "http://www.w3.org/Graphics/SVG/1.1/DTD/svg11.dtd">
<!-- Generated by graphviz version 2.38.0 (20140413.2041)
 -->
<!-- Title: %3 Pages: 1 -->
<svg width="576pt" height="348pt"
 viewBox="0.00 0.00 576.46 348.00" xmlns="http://www.w3.org/2000/svg" xmlns:xlink="http://www.w3.org/1999/xlink">
<g id="graph0" class="graph" transform="scale(1 1) rotate(0) translate(4 344)">
<title>%3</title>
<polygon fill="#333333" stroke="none" points="-4,4 -4,-344 572.459,-344 572.459,4 -4,4"/>
<text text-anchor="middle" x="284.229" y="-7.2" font-family="Times,serif" font-size="16.00" fill="white">Network Map</text>
<!-- R4 -->
<g id="node1" class="node"><title>R4</title>
<polygon fill="#006699" stroke="#006699" points="87.5389,-340 11.7458,-340 11.7458,-268 87.5389,-268 87.5389,-340"/>
<text text-anchor="middle" x="49.6424" y="-299.8" font-family="Helvetica,sans-Serif" font-size="14.00" fill="white">R4</text>
</g>
<!-- R5 -->
<g id="node2" class="node"><title>R5</title>
<polygon fill="#006699" stroke="#006699" points="211.539,-340 135.746,-340 135.746,-268 211.539,-268 211.539,-340"/>
<text text-anchor="middle" x="173.642" y="-299.8" font-family="Helvetica,sans-Serif" font-size="14.00" fill="white">R5</text>
</g>
<!-- R1 -->
<g id="node3" class="node"><title>R1</title>
<polygon fill="#006699" stroke="#006699" points="273.539,-218 197.746,-218 197.746,-146 273.539,-146 273.539,-218"/>
<text text-anchor="middle" x="235.642" y="-177.8" font-family="Helvetica,sans-Serif" font-size="14.00" fill="white">R1</text>
</g>
<!-- R2 -->
<g id="node4" class="node"><title>R2</title>
<polygon fill="#006699" stroke="#006699" points="459.539,-218 383.746,-218 383.746,-146 459.539,-146 459.539,-218"/>
<text text-anchor="middle" x="421.642" y="-177.8" font-family="Helvetica,sans-Serif" font-size="14.00" fill="white">R2</text>
</g>
<!-- R3 -->
<g id="node5" class="node"><title>R3</title>
<polygon fill="#006699" stroke="#006699" points="149.539,-218 73.7458,-218 73.7458,-146 149.539,-146 149.539,-218"/>
<text text-anchor="middle" x="111.642" y="-177.8" font-family="Helvetica,sans-Serif" font-size="14.00" fill="white">R3</text>
</g>
<!-- R3&#45;&#45;R4 -->
<g id="edge5" class="edge"><title>R3&#45;&#45;R4</title>
<path fill="none" stroke="green" stroke-dasharray="5,2" d="M73.6568,-204.978C62.9727,-213.228 52.679,-223.653 46.826,-236 42.2378,-245.678 41.3112,-257.054 42.0068,-267.656"/>
<text text-anchor="middle" x="98.0506" y="-238.8" font-family="Courier,monospace" font-size="14.00" fill="white"> &#160;&#160;&#160;&#160;&#160;&#160;&#160;&#160;&#160;&#160;&#160;</text>
<text text-anchor="middle" x="21.0034" y="-256.456" font-family="Courier,monospace" font-size="14.00" fill="white">Fa0/0</text>
<text text-anchor="middle" x="52.6533" y="-193.778" font-family="Courier,monospace" font-size="14.00" fill="white">Fa0/1</text>
</g>
<!-- R3&#45;&#45;R5 -->
<g id="edge3" class="edge"><title>R3&#45;&#45;R5</title>
<path fill="none" stroke="green" stroke-dasharray="5,2" d="M140.648,-218.145C144.666,-223.909 148.49,-229.973 151.642,-236 156.806,-245.872 161.078,-257.192 164.441,-267.683"/>
<text text-anchor="middle" x="208.051" y="-238.8" font-family="Courier,monospace" font-size="14.00" fill="white"> &#160;&#160;&#160;&#160;&#160;&#160;&#160;&#160;&#160;&#160;&#160;</text>
<text text-anchor="middle" x="143.437" y="-256.483" font-family="Courier,monospace" font-size="14.00" fill="white">Fa0/0</text>
<text text-anchor="middle" x="119.644" y="-220.945" font-family="Courier,monospace" font-size="14.00" fill="white">Fa0/2</text>
</g>
<!-- SW1 -->
<g id="node6" class="node"><title>SW1</title>
<polygon fill="#006699" stroke="#006699" points="279.981,-96 191.304,-96 191.304,-24 279.981,-24 279.981,-96"/>
<text text-anchor="middle" x="235.642" y="-55.8" font-family="Helvetica,sans-Serif" font-size="14.00" fill="white">SW1</text>
</g>
<!-- SW1&#45;&#45;R1 -->
<g id="edge1" class="edge"><title>SW1&#45;&#45;R1</title>
<path fill="none" stroke="green" stroke-dasharray="5,2" d="M235.642,-96.0316C235.642,-111.666 235.642,-130.053 235.642,-145.717"/>
<text text-anchor="middle" x="286.051" y="-116.8" font-family="Courier,monospace" font-size="14.00" fill="white"> &#160;&#160;&#160;&#160;&#160;&#160;&#160;&#160;&#160;&#160;&#160;</text>
<text text-anchor="middle" x="214.639" y="-134.517" font-family="Courier,monospace" font-size="14.00" fill="white">Fa0/0</text>
<text text-anchor="middle" x="214.639" y="-98.8316" font-family="Courier,monospace" font-size="14.00" fill="white">Fa0/1</text>
</g>
<!-- SW1&#45;&#45;R2 -->
<g id="edge4" class="edge"><title>SW1&#45;&#45;R2</title>
<path fill="none" stroke="green" stroke-dasharray="5,2" d="M279.872,-81.6328C298.204,-90.7799 319.403,-102.148 337.642,-114 347.027,-120.099 366.071,-135.201 383.656,-149.527"/>
<text text-anchor="middle" x="407.051" y="-116.8" font-family="Courier,monospace" font-size="14.00" fill="white"> &#160;&#160;&#160;&#160;&#160;&#160;&#160;&#160;&#160;&#160;&#160;</text>
<text text-anchor="middle" x="362.653" y="-138.327" font-family="Courier,monospace" font-size="14.00" fill="white">Fa0/0</text>
<text text-anchor="middle" x="300.876" y="-70.4328" font-family="Courier,monospace" font-size="14.00" fill="white">Fa0/2</text>
</g>
<!-- SW1&#45;&#45;R3 -->
<g id="edge6" class="edge"><title>SW1&#45;&#45;R3</title>
<path fill="none" stroke="green" stroke-dasharray="5,2" d="M191.263,-74.1165C170.221,-82.4223 146.351,-95.2182 130.826,-114 123.426,-122.953 118.878,-134.613 116.084,-145.691"/>
<text text-anchor="middle" x="182.051" y="-116.8" font-family="Courier,monospace" font-size="14.00" fill="white"> &#160;&#160;&#160;&#160;&#160;&#160;&#160;&#160;&#160;&#160;&#160;</text>
<text text-anchor="middle" x="95.0804" y="-134.491" font-family="Courier,monospace" font-size="14.00" fill="white">Fa0/0</text>
<text text-anchor="middle" x="170.26" y="-62.9165" font-family="Courier,monospace" font-size="14.00" fill="white">Fa0/3</text>
</g>
<!-- SW2 -->
<g id="node7" class="node"><title>SW2</title>
<polygon fill="#006699" stroke="#006699" points="527.981,-96 439.304,-96 439.304,-24 527.981,-24 527.981,-96"/>
<text text-anchor="middle" x="483.642" y="-55.8" font-family="Helvetica,sans-Serif" font-size="14.00" fill="white">SW2</text>
</g>
<!-- SW2&#45;&#45;R2 -->
<g id="edge2" class="edge"><title>SW2&#45;&#45;R2</title>
<path fill="none" stroke="green" stroke-dasharray="5,2" d="M474.441,-96.3173C471.078,-106.808 466.806,-118.128 461.642,-128 458.49,-134.027 454.666,-140.091 450.648,-145.855"/>
<text text-anchor="middle" x="518.051" y="-116.8" font-family="Courier,monospace" font-size="14.00" fill="white"> &#160;&#160;&#160;&#160;&#160;&#160;&#160;&#160;&#160;&#160;&#160;</text>
<text text-anchor="middle" x="429.644" y="-134.655" font-family="Courier,monospace" font-size="14.00" fill="white">Fa0/1</text>
<text text-anchor="middle" x="449.237" y="-99.1173" font-family="Courier,monospace" font-size="14.00" fill="white">Fa0/11</text>
</g>
</g>
</svg>
