<?xml version="1.0" encoding="UTF-8" standalone="no"?>
<!DOCTYPE svg PUBLIC "-//W3C//DTD SVG 1.1//EN"
 "http://www.w3.org/Graphics/SVG/1.1/DTD/svg11.dtd">
<!-- Generated by graphviz version 2.38.0 (20140413.2041)
 -->
<!-- Title: %3 Pages: 1 -->
<svg width="390pt" height="226pt"
 viewBox="0.00 0.00 389.78 226.00" xmlns="http://www.w3.org/2000/svg" xmlns:xlink="http://www.w3.org/1999/xlink">
<g id="graph0" class="graph" transform="scale(1 1) rotate(0) translate(4 222)">
<title>%3</title>
<polygon fill="#333333" stroke="none" points="-4,4 -4,-222 385.783,-222 385.783,4 -4,4"/>
<text text-anchor="middle" x="190.892" y="-7.2" font-family="Times,serif" font-size="16.00" fill="white">Network Map</text>
<!-- SW1 -->
<g id="node1" class="node"><title>SW1</title>
<polygon fill="#006699" stroke="#006699" points="214.305,-96 125.628,-96 125.628,-24 214.305,-24 214.305,-96"/>
<text text-anchor="middle" x="169.967" y="-55.8" font-family="Helvetica,sans-Serif" font-size="14.00" fill="white">SW1</text>
</g>
<!-- R1 -->
<g id="node2" class="node"><title>R1</title>
<polygon fill="#006699" stroke="#006699" points="83.8633,-218 8.07015,-218 8.07015,-146 83.8633,-146 83.8633,-218"/>
<text text-anchor="middle" x="45.9667" y="-177.8" font-family="Helvetica,sans-Serif" font-size="14.00" fill="white">R1</text>
</g>
<!-- SW1&#45;&#45;R1 -->
<g id="edge2" class="edge"><title>SW1&#45;&#45;R1</title>
<path fill="none" stroke="green" stroke-dasharray="5,2" d="M125.587,-74.1165C104.546,-82.4223 80.6753,-95.2182 65.1503,-114 57.7499,-122.953 53.2022,-134.613 50.4082,-145.691"/>
<text text-anchor="middle" x="116.375" y="-116.8" font-family="Courier,monospace" font-size="14.00" fill="white"> &#160;&#160;&#160;&#160;&#160;&#160;&#160;&#160;&#160;&#160;&#160;</text>
<text text-anchor="middle" x="25.2041" y="-134.491" font-family="Courier,monospace" font-size="14.00" fill="white">Eth0/0</text>
<text text-anchor="middle" x="100.383" y="-62.9165" font-family="Courier,monospace" font-size="14.00" fill="white">Eth0/1</text>
</g>
<!-- R2 -->
<g id="node3" class="node"><title>R2</title>
<polygon fill="#006699" stroke="#006699" points="207.863,-218 132.07,-218 132.07,-146 207.863,-146 207.863,-218"/>
<text text-anchor="middle" x="169.967" y="-177.8" font-family="Helvetica,sans-Serif" font-size="14.00" fill="white">R2</text>
</g>
<!-- SW1&#45;&#45;R2 -->
<g id="edge1" class="edge"><title>SW1&#45;&#45;R2</title>
<path fill="none" stroke="green" stroke-dasharray="5,2" d="M169.967,-96.0316C169.967,-111.666 169.967,-130.053 169.967,-145.717"/>
<text text-anchor="middle" x="220.375" y="-116.8" font-family="Courier,monospace" font-size="14.00" fill="white"> &#160;&#160;&#160;&#160;&#160;&#160;&#160;&#160;&#160;&#160;&#160;</text>
<text text-anchor="middle" x="144.763" y="-134.517" font-family="Courier,monospace" font-size="14.00" fill="white">Eth0/0</text>
<text text-anchor="middle" x="144.763" y="-98.8316" font-family="Courier,monospace" font-size="14.00" fill="white">Eth0/2</text>
</g>
<!-- R3 -->
<g id="node4" class="node"><title>R3</title>
<polygon fill="#006699" stroke="#006699" points="331.863,-218 256.07,-218 256.07,-146 331.863,-146 331.863,-218"/>
<text text-anchor="middle" x="293.967" y="-177.8" font-family="Helvetica,sans-Serif" font-size="14.00" fill="white">R3</text>
</g>
<!-- SW1&#45;&#45;R3 -->
<g id="edge3" class="edge"><title>SW1&#45;&#45;R3</title>
<path fill="none" stroke="green" stroke-dasharray="5,2" d="M214.151,-75.1721C234.241,-83.6092 256.846,-96.2086 271.967,-114 279.578,-122.956 284.575,-134.617 287.847,-145.694"/>
<text text-anchor="middle" x="331.375" y="-116.8" font-family="Courier,monospace" font-size="14.00" fill="white"> &#160;&#160;&#160;&#160;&#160;&#160;&#160;&#160;&#160;&#160;&#160;</text>
<text text-anchor="middle" x="262.643" y="-134.494" font-family="Courier,monospace" font-size="14.00" fill="white">Eth0/0</text>
<text text-anchor="middle" x="239.356" y="-63.9721" font-family="Courier,monospace" font-size="14.00" fill="white">Eth0/3</text>
</g>
</g>
</svg>
