<?xml version="1.0" encoding="UTF-8" standalone="no"?>
<!DOCTYPE svg PUBLIC "-//W3C//DTD SVG 1.1//EN"
 "http://www.w3.org/Graphics/SVG/1.1/DTD/svg11.dtd">
<!-- Generated by graphviz version 2.38.0 (20140413.2041)
 -->
<!-- Title: %3 Pages: 1 -->
<svg width="514pt" height="348pt"
 viewBox="0.00 0.00 513.95 348.00" xmlns="http://www.w3.org/2000/svg" xmlns:xlink="http://www.w3.org/1999/xlink">
<g id="graph0" class="graph" transform="scale(1 1) rotate(0) translate(4 344)">
<title>%3</title>
<polygon fill="#3f3f3f" stroke="none" points="-4,4 -4,-344 509.953,-344 509.953,4 -4,4"/>
<text text-anchor="middle" x="252.976" y="-7.2" font-family="Times,serif" font-size="16.00" fill="white">Network Map</text>
<!-- R4 -->
<g id="node1" class="node"><title>R4</title>
<polygon fill="#006699" stroke="#006699" points="93.0328,-218 17.2397,-218 17.2397,-146 93.0328,-146 93.0328,-218"/>
<text text-anchor="middle" x="55.1362" y="-177.8" font-family="Helvetica,sans-Serif" font-size="14.00" fill="white">R4</text>
</g>
<!-- R5 -->
<g id="node2" class="node"><title>R5</title>
<polygon fill="#006699" stroke="#006699" points="155.033,-340 79.2397,-340 79.2397,-268 155.033,-268 155.033,-340"/>
<text text-anchor="middle" x="117.136" y="-299.8" font-family="Helvetica,sans-Serif" font-size="14.00" fill="white">R5</text>
</g>
<!-- R4&#45;&#45;R5 -->
<g id="edge2" class="edge"><title>R4&#45;&#45;R5</title>
<path fill="none" stroke="green" stroke-dasharray="5,2" d="M50.4082,-218.314C50.3779,-228.915 51.8016,-240.297 56.3198,-250 61.4044,-260.919 69.9362,-270.483 79.0252,-278.37"/>
<text text-anchor="middle" x="107.544" y="-238.8" font-family="Courier,monospace" font-size="14.00" fill="white"> &#160;&#160;&#160;&#160;&#160;&#160;&#160;&#160;&#160;&#160;&#160;</text>
<text text-anchor="middle" x="53.8211" y="-267.17" font-family="Courier,monospace" font-size="14.00" fill="white">Eth0/1</text>
<text text-anchor="middle" x="25.2041" y="-221.114" font-family="Courier,monospace" font-size="14.00" fill="white">Eth0/1</text>
</g>
<!-- R6 -->
<g id="node3" class="node"><title>R6</title>
<polygon fill="#006699" stroke="#006699" points="341.033,-340 265.24,-340 265.24,-268 341.033,-268 341.033,-340"/>
<text text-anchor="middle" x="303.136" y="-299.8" font-family="Helvetica,sans-Serif" font-size="14.00" fill="white">R6</text>
</g>
<!-- R1 -->
<g id="node4" class="node"><title>R1</title>
<polygon fill="#006699" stroke="#006699" points="217.033,-218 141.24,-218 141.24,-146 217.033,-146 217.033,-218"/>
<text text-anchor="middle" x="179.136" y="-177.8" font-family="Helvetica,sans-Serif" font-size="14.00" fill="white">R1</text>
</g>
<!-- R2 -->
<g id="node5" class="node"><title>R2</title>
<polygon fill="#006699" stroke="#006699" points="341.033,-218 265.24,-218 265.24,-146 341.033,-146 341.033,-218"/>
<text text-anchor="middle" x="303.136" y="-177.8" font-family="Helvetica,sans-Serif" font-size="14.00" fill="white">R2</text>
</g>
<!-- R2&#45;&#45;R5 -->
<g id="edge6" class="edge"><title>R2&#45;&#45;R5</title>
<path fill="none" stroke="green" stroke-dasharray="5,2" d="M265.152,-199.705C244.736,-209.296 219.483,-222.163 198.32,-236 183.636,-245.6 168.549,-257.422 155.426,-268.45"/>
<text text-anchor="middle" x="249.544" y="-238.8" font-family="Courier,monospace" font-size="14.00" fill="white"> &#160;&#160;&#160;&#160;&#160;&#160;&#160;&#160;&#160;&#160;&#160;</text>
<text text-anchor="middle" x="180.63" y="-257.25" font-family="Courier,monospace" font-size="14.00" fill="white">Eth0/0</text>
<text text-anchor="middle" x="239.948" y="-188.505" font-family="Courier,monospace" font-size="14.00" fill="white">Eth0/1</text>
</g>
<!-- R2&#45;&#45;R6 -->
<g id="edge7" class="edge"><title>R2&#45;&#45;R6</title>
<path fill="none" stroke="green" stroke-dasharray="5,2" d="M303.136,-218.032C303.136,-233.666 303.136,-252.053 303.136,-267.717"/>
<text text-anchor="middle" x="353.544" y="-238.8" font-family="Courier,monospace" font-size="14.00" fill="white"> &#160;&#160;&#160;&#160;&#160;&#160;&#160;&#160;&#160;&#160;&#160;</text>
<text text-anchor="middle" x="277.932" y="-256.517" font-family="Courier,monospace" font-size="14.00" fill="white">Eth0/1</text>
<text text-anchor="middle" x="277.932" y="-220.832" font-family="Courier,monospace" font-size="14.00" fill="white">Eth0/2</text>
</g>
<!-- R3 -->
<g id="node6" class="node"><title>R3</title>
<polygon fill="#006699" stroke="#006699" points="465.033,-218 389.24,-218 389.24,-146 465.033,-146 465.033,-218"/>
<text text-anchor="middle" x="427.136" y="-177.8" font-family="Helvetica,sans-Serif" font-size="14.00" fill="white">R3</text>
</g>
<!-- SW1 -->
<g id="node7" class="node"><title>SW1</title>
<polygon fill="#006699" stroke="#006699" points="285.475,-96 196.798,-96 196.798,-24 285.475,-24 285.475,-96"/>
<text text-anchor="middle" x="241.136" y="-55.8" font-family="Helvetica,sans-Serif" font-size="14.00" fill="white">SW1</text>
</g>
<!-- SW1&#45;&#45;R4 -->
<g id="edge1" class="edge"><title>SW1&#45;&#45;R4</title>
<path fill="none" stroke="green" stroke-dasharray="5,2" d="M196.873,-62.3705C157.376,-66.0658 100.894,-77.875 68.3198,-114 60.5398,-122.628 56.7843,-134.469 55.1123,-145.798"/>
<text text-anchor="middle" x="119.544" y="-116.8" font-family="Courier,monospace" font-size="14.00" fill="white"> &#160;&#160;&#160;&#160;&#160;&#160;&#160;&#160;&#160;&#160;&#160;</text>
<text text-anchor="middle" x="29.9082" y="-134.598" font-family="Courier,monospace" font-size="14.00" fill="white">Eth0/0</text>
<text text-anchor="middle" x="171.669" y="-51.1705" font-family="Courier,monospace" font-size="14.00" fill="white">Eth0/4</text>
</g>
<!-- SW1&#45;&#45;R1 -->
<g id="edge5" class="edge"><title>SW1&#45;&#45;R1</title>
<path fill="none" stroke="green" stroke-dasharray="5,2" d="M196.753,-88.2449C188.487,-95.521 180.99,-104.149 176.32,-114 171.732,-123.678 170.805,-135.054 171.501,-145.656"/>
<text text-anchor="middle" x="227.544" y="-116.8" font-family="Courier,monospace" font-size="14.00" fill="white"> &#160;&#160;&#160;&#160;&#160;&#160;&#160;&#160;&#160;&#160;&#160;</text>
<text text-anchor="middle" x="146.297" y="-134.456" font-family="Courier,monospace" font-size="14.00" fill="white">Eth0/0</text>
<text text-anchor="middle" x="171.549" y="-77.0449" font-family="Courier,monospace" font-size="14.00" fill="white">Eth0/1</text>
</g>
<!-- SW1&#45;&#45;R2 -->
<g id="edge4" class="edge"><title>SW1&#45;&#45;R2</title>
<path fill="none" stroke="green" stroke-dasharray="5,2" d="M270.142,-96.1452C274.16,-101.909 277.984,-107.973 281.136,-114 286.3,-123.872 290.572,-135.192 293.934,-145.683"/>
<text text-anchor="middle" x="337.544" y="-116.8" font-family="Courier,monospace" font-size="14.00" fill="white"> &#160;&#160;&#160;&#160;&#160;&#160;&#160;&#160;&#160;&#160;&#160;</text>
<text text-anchor="middle" x="268.73" y="-134.483" font-family="Courier,monospace" font-size="14.00" fill="white">Eth0/0</text>
<text text-anchor="middle" x="244.938" y="-98.9452" font-family="Courier,monospace" font-size="14.00" fill="white">Eth0/2</text>
</g>
<!-- SW1&#45;&#45;R3 -->
<g id="edge3" class="edge"><title>SW1&#45;&#45;R3</title>
<path fill="none" stroke="green" stroke-dasharray="5,2" d="M285.525,-67.5929C318.196,-74.4135 361.992,-87.9071 392.136,-114 401.96,-122.503 409.419,-134.449 414.875,-145.904"/>
<text text-anchor="middle" x="455.544" y="-116.8" font-family="Courier,monospace" font-size="14.00" fill="white"> &#160;&#160;&#160;&#160;&#160;&#160;&#160;&#160;&#160;&#160;&#160;</text>
<text text-anchor="middle" x="389.671" y="-134.704" font-family="Courier,monospace" font-size="14.00" fill="white">Eth0/0</text>
<text text-anchor="middle" x="310.729" y="-56.3929" font-family="Courier,monospace" font-size="14.00" fill="white">Eth0/3</text>
</g>
</g>
</svg>
